<svg width="343" height="312" viewBox="0 0 343 312" fill="none" xmlns="http://www.w3.org/2000/svg">
<path d="M273.345 0V37.0268H170.672C164.235 37.0268 158.029 37.9493 152.159 39.6686V37.0268C152.159 16.5845 168.743 0 189.185 0H273.345V0Z" fill="url(#paint0_linear_134_3)"/>
<path opacity="0.5" d="M273.345 0V37.0268H170.672C164.235 37.0268 158.029 37.9493 152.159 39.6686V37.0268C152.159 16.5845 168.743 0 189.185 0H273.345V0Z" fill="url(#paint1_linear_134_3)"/>
<path d="M67.9999 0V37.0268H170.673C177.109 37.0268 183.315 37.9493 189.186 39.6686V37.0268C189.186 16.5845 172.602 0 152.159 0H67.9999V0Z" fill="url(#paint2_linear_134_3)"/>
<path opacity="0.5" d="M67.9999 0V37.0268H170.673C177.109 37.0268 183.315 37.9493 189.186 39.6686V37.0268C189.186 16.5845 172.602 0 152.159 0H67.9999Z" fill="url(#paint3_linear_134_3)"/>
<path d="M170.673 168.34C134.422 168.34 105.027 138.945 105.027 102.694C105.027 66.4431 134.422 37.0481 170.673 37.0481H188.096V0.0213318H170.673C113.959 0.0213318 68.0003 45.9798 68.0003 102.694C68.0003 159.408 113.98 205.367 170.673 205.367C212.648 205.367 248.689 180.186 264.624 144.103H221.601C209.566 158.884 191.22 168.34 170.673 168.34Z" fill="url(#paint4_linear_134_3)"/>
<path opacity="0.5" d="M117.083 58.8948C117.796 59.9012 118.53 60.8866 119.264 61.893C131.298 46.7552 149.833 37.0478 170.673 37.0478H188.097V0.0209656H170.673C141.803 0.0209656 115.741 11.9509 97.0812 31.1352C103.916 40.2556 110.458 49.6067 117.083 58.8948Z" fill="url(#paint5_linear_134_3)"/>
<path d="M226.212 0H189.185C168.743 0 152.159 16.5845 152.159 37.0268V151.21C158.029 152.95 164.256 153.873 170.672 153.873C177.109 153.873 183.315 152.95 189.185 151.231V37.0268C189.185 16.5845 205.77 0 226.212 0Z" fill="url(#paint6_linear_134_3)"/>
<path d="M0 252.462H10.0567V283.722H19.3024V252.462H29.3591V244.883H0V252.462Z" fill="black"/>
<path d="M55.6806 257.497C55.6806 260.54 54.0585 262.366 50.5982 262.366H44.8669V252.739H50.5982C54.0585 252.739 55.6806 254.62 55.6806 257.497ZM35.6213 244.883V283.722H44.8669V269.06H47.0837L54.9777 283.722H65.4128L56.6538 268.341C62.4932 266.57 65.0884 261.978 65.0884 257.11C65.0884 250.36 60.4386 244.883 51.1388 244.883H35.6213Z" fill="black"/>
<path d="M98.4131 283.722H108.199L94.4661 244.883H83.7606L70.0272 283.722H79.7054L81.9763 276.861H96.1422L98.4131 283.722ZM93.7632 269.558H84.4094L89.0593 255.339L93.7632 269.558Z" fill="black"/>
<path d="M138.71 244.883V268.949L123.247 244.883H114.001V283.722H123.247V259.765L138.71 283.722H147.956V244.883H138.71Z" fill="black"/>
<path d="M183.855 272.158C183.855 259.157 165.093 262.2 165.093 255.45C165.093 253.015 166.769 251.854 168.986 251.909C171.473 251.964 173.203 253.458 173.366 255.948H183.368C182.99 248.534 177.421 244.329 169.148 244.329C161.2 244.329 155.307 248.423 155.307 255.782C155.199 269.558 174.177 265.685 174.177 272.878C174.177 275.146 172.446 276.529 169.743 276.529C167.148 276.529 165.309 275.091 165.039 272.103H155.199C155.469 279.959 161.849 284.109 170.013 284.109C178.881 284.109 183.855 278.687 183.855 272.158Z" fill="black"/>
<path d="M189.599 264.247C189.599 275.865 197.493 283.998 208.685 283.998C217.714 283.998 224.527 278.853 226.69 270.443H216.525C214.957 273.763 212.091 275.423 208.577 275.423C202.899 275.423 199.007 271.107 199.007 264.247C199.007 257.386 202.899 253.071 208.577 253.071C212.091 253.071 214.957 254.731 216.525 258.05H226.69C224.527 249.641 217.714 244.44 208.685 244.44C197.493 244.44 189.599 252.628 189.599 264.247Z" fill="black"/>
<path d="M271.335 264.191C271.335 252.518 262.738 244.329 251.924 244.329C241.165 244.329 232.406 252.518 232.406 264.191C232.406 275.865 241.165 284.109 251.924 284.109C262.684 284.109 271.335 275.865 271.335 264.191ZM241.867 264.191C241.867 257.276 245.76 252.905 251.924 252.905C257.98 252.905 261.927 257.276 261.927 264.191C261.927 270.996 257.98 275.478 251.924 275.478C245.76 275.478 241.867 270.996 241.867 264.191Z" fill="black"/>
<path d="M292.32 244.883H278.1V283.722H292.32C304.432 283.722 312.217 275.81 312.217 264.302C312.217 252.739 304.432 244.883 292.32 244.883ZM287.346 275.533V252.96H291.726C298.7 252.96 302.81 257.165 302.81 264.302C302.81 271.439 298.7 275.533 291.726 275.533H287.346Z" fill="black"/>
<path d="M342.256 244.883H319.006V283.722H342.256V276.142H328.252V267.622H340.634V260.319H328.252V252.462H342.256V244.883Z" fill="black"/>
<path d="M68.201 304.796C68.1681 304.434 68.0219 304.153 67.7624 303.953C67.5061 303.749 67.1398 303.647 66.6635 303.647C66.3481 303.647 66.0853 303.688 65.8751 303.771C65.6648 303.853 65.5071 303.966 65.402 304.111C65.2969 304.252 65.2427 304.415 65.2394 304.598C65.2328 304.75 65.2624 304.883 65.3281 304.998C65.3971 305.113 65.4956 305.214 65.6237 305.303C65.7551 305.389 65.9128 305.464 66.0968 305.53C66.2808 305.596 66.4877 305.653 66.7177 305.702L67.585 305.899C68.0843 306.008 68.5246 306.152 68.9056 306.333C69.29 306.514 69.6119 306.729 69.8715 306.979C70.1343 307.228 70.333 307.516 70.4677 307.841C70.6024 308.166 70.6714 308.531 70.6747 308.935C70.6714 309.572 70.5104 310.119 70.1918 310.576C69.8731 311.032 69.4148 311.382 68.8169 311.625C68.2223 311.869 67.5045 311.99 66.6635 311.99C65.8192 311.99 65.0833 311.864 64.4559 311.611C63.8284 311.358 63.3405 310.973 62.9923 310.458C62.6441 309.942 62.465 309.29 62.4552 308.501H64.7909C64.8107 308.826 64.8977 309.098 65.0521 309.314C65.2065 309.531 65.4184 309.695 65.6878 309.807C65.9605 309.919 66.2758 309.975 66.6339 309.975C66.9624 309.975 67.2417 309.93 67.4717 309.842C67.7049 309.753 67.8839 309.63 68.0088 309.472C68.1336 309.314 68.1977 309.134 68.201 308.93C68.1977 308.739 68.1385 308.577 68.0236 308.442C67.9086 308.304 67.7312 308.186 67.4914 308.087C67.2548 307.985 66.9526 307.892 66.5847 307.806L65.5301 307.56C64.6563 307.36 63.968 307.036 63.4654 306.589C62.9627 306.139 62.7131 305.531 62.7164 304.766C62.7131 304.142 62.8806 303.595 63.219 303.125C63.5574 302.655 64.0255 302.289 64.6234 302.026C65.2213 301.763 65.903 301.632 66.6684 301.632C67.4503 301.632 68.1287 301.765 68.7036 302.031C69.2818 302.294 69.7302 302.664 70.0489 303.14C70.3675 303.616 70.5302 304.168 70.5367 304.796H68.201Z" fill="black"/>
<path d="M102.247 306.816C102.247 307.926 102.033 308.868 101.606 309.64C101.179 310.412 100.601 310.998 99.8717 311.399C99.1457 311.8 98.331 312 97.4275 312C96.5208 312 95.7045 311.798 94.9784 311.394C94.2524 310.99 93.6759 310.403 93.2488 309.635C92.825 308.863 92.6131 307.923 92.6131 306.816C92.6131 305.706 92.825 304.764 93.2488 303.992C93.6759 303.22 94.2524 302.634 94.9784 302.233C95.7045 301.832 96.5208 301.632 97.4275 301.632C98.331 301.632 99.1457 301.832 99.8717 302.233C100.601 302.634 101.179 303.22 101.606 303.992C102.033 304.764 102.247 305.706 102.247 306.816ZM99.7535 306.816C99.7535 306.159 99.6598 305.604 99.4726 305.15C99.2886 304.697 99.0225 304.354 98.6743 304.12C98.3293 303.887 97.9138 303.771 97.4275 303.771C96.9446 303.771 96.5291 303.887 96.1808 304.12C95.8326 304.354 95.5649 304.697 95.3776 305.15C95.1936 305.604 95.1016 306.159 95.1016 306.816C95.1016 307.473 95.1936 308.028 95.3776 308.482C95.5649 308.935 95.8326 309.278 96.1808 309.511C96.5291 309.745 96.9446 309.861 97.4275 309.861C97.9138 309.861 98.3293 309.745 98.6743 309.511C99.0225 309.278 99.2886 308.935 99.4726 308.482C99.6598 308.028 99.7535 307.473 99.7535 306.816Z" fill="black"/>
<path d="M124.486 311.862V301.77H126.925V309.881H131.124V311.862H124.486Z" fill="black"/>
<path d="M159.307 301.77H161.741V308.28C161.741 309.032 161.562 309.687 161.204 310.246C160.846 310.801 160.347 311.231 159.706 311.537C159.065 311.839 158.321 311.99 157.474 311.99C156.616 311.99 155.867 311.839 155.227 311.537C154.586 311.231 154.088 310.801 153.733 310.246C153.379 309.687 153.201 309.032 153.201 308.28V301.77H155.64V308.068C155.64 308.416 155.716 308.726 155.867 308.999C156.022 309.272 156.237 309.485 156.513 309.64C156.789 309.794 157.109 309.871 157.474 309.871C157.838 309.871 158.157 309.794 158.43 309.64C158.706 309.485 158.921 309.272 159.075 308.999C159.23 308.726 159.307 308.416 159.307 308.068V301.77Z" fill="black"/>
<path d="M183.755 303.751V301.77H192.285V303.751H189.224V311.862H186.82V303.751H183.755Z" fill="black"/>
<path d="M216.73 301.77V311.862H214.291V301.77H216.73Z" fill="black"/>
<path d="M248.602 306.816C248.602 307.926 248.388 308.868 247.961 309.64C247.534 310.412 246.956 310.998 246.226 311.399C245.5 311.8 244.686 312 243.782 312C242.876 312 242.059 311.798 241.333 311.394C240.607 310.99 240.031 310.403 239.603 309.635C239.18 308.863 238.968 307.923 238.968 306.816C238.968 305.706 239.18 304.764 239.603 303.992C240.031 303.22 240.607 302.634 241.333 302.233C242.059 301.832 242.876 301.632 243.782 301.632C244.686 301.632 245.5 301.832 246.226 302.233C246.956 302.634 247.534 303.22 247.961 303.992C248.388 304.764 248.602 305.706 248.602 306.816ZM246.108 306.816C246.108 306.159 246.015 305.604 245.827 305.15C245.643 304.697 245.377 304.354 245.029 304.12C244.684 303.887 244.268 303.771 243.782 303.771C243.299 303.771 242.884 303.887 242.536 304.12C242.187 304.354 241.92 304.697 241.732 305.15C241.548 305.604 241.456 306.159 241.456 306.816C241.456 307.473 241.548 308.028 241.732 308.482C241.92 308.935 242.187 309.278 242.536 309.511C242.884 309.745 243.299 309.861 243.782 309.861C244.268 309.861 244.684 309.745 245.029 309.511C245.377 309.278 245.643 308.935 245.827 308.482C246.015 308.028 246.108 307.473 246.108 306.816Z" fill="black"/>
<path d="M279.43 301.77V311.862H277.36L273.344 306.037H273.28V311.862H270.841V301.77H272.94L276.912 307.585H276.995V301.77H279.43Z" fill="black"/>
<defs>
<linearGradient id="paint0_linear_134_3" x1="240.605" y1="60.8554" x2="205.422" y2="9.04808" gradientUnits="userSpaceOnUse">
<stop stop-color="#00C6DB"/>
<stop offset="1" stop-color="#72227F"/>
</linearGradient>
<linearGradient id="paint1_linear_134_3" x1="235.008" y1="53.0072" x2="209.789" y2="15.4265" gradientUnits="userSpaceOnUse">
<stop offset="0.2081" stop-color="#72227F" stop-opacity="0"/>
<stop offset="1" stop-color="#72227F"/>
</linearGradient>
<linearGradient id="paint2_linear_134_3" x1="72.0594" y1="-8.16749" x2="124.076" y2="23.9091" gradientUnits="userSpaceOnUse">
<stop stop-color="#00C6DB"/>
<stop offset="1" stop-color="#72227F"/>
</linearGradient>
<linearGradient id="paint3_linear_134_3" x1="98.3042" y1="2.62542" x2="122.04" y2="22.8994" gradientUnits="userSpaceOnUse">
<stop offset="0.2081" stop-color="#72227F" stop-opacity="0"/>
<stop offset="1" stop-color="#72227F"/>
</linearGradient>
<linearGradient id="paint4_linear_134_3" x1="91.7978" y1="36.3613" x2="236.986" y2="181.549" gradientUnits="userSpaceOnUse">
<stop stop-color="#FFDC81"/>
<stop offset="1" stop-color="#FF4EA6"/>
</linearGradient>
<linearGradient id="paint5_linear_134_3" x1="101.097" y1="36.3626" x2="156.479" y2="28.9453" gradientUnits="userSpaceOnUse">
<stop offset="0.2081" stop-color="#72227F" stop-opacity="0"/>
<stop offset="1" stop-color="#72227F"/>
</linearGradient>
<linearGradient id="paint6_linear_134_3" x1="174.272" y1="9.41793" x2="205.635" y2="148.631" gradientUnits="userSpaceOnUse">
<stop stop-color="#00C6DB"/>
<stop offset="1" stop-color="#72227F"/>
</linearGradient>
</defs>
</svg>
